<mxfile host="app.diagrams.net" modified="2024-04-06T08:18:08.900Z" agent="Mozilla/5.0 (Windows NT 10.0; Win64; x64) AppleWebKit/537.36 (KHTML, like Gecko) Chrome/123.0.0.0 Safari/537.36" version="24.2.2" etag="s5rlbJ2pup54YYz8e9yh" type="github">
  <diagram name="第 1 页" id="dQHq2Vu-Gd9qn7A1EiAq">
    <mxGraphModel>
      <root>
        <mxCell id="0" />
        <mxCell id="1" parent="0" />
      </root>
    </mxGraphModel>
  </diagram>
</mxfile>
